<svg width="20" height="20" viewBox="0 0 20 20" fill="none" xmlns="http://www.w3.org/2000/svg">
<g clip-path="url(#clip0_2_72)">
<path d="M6.06469 6.06481H13.9351M6.06469 6.06481V13.9352M6.06469 6.06481V3.75C6.06469 2.47156 5.02831 1.43518 3.74987 1.43518C2.47144 1.43518 1.43506 2.47156 1.43506 3.75C1.43506 5.02843 2.47144 6.06481 3.74987 6.06481H6.06469ZM13.9351 6.06481V13.9352M13.9351 6.06481H16.2499C17.5283 6.06481 18.5647 5.02843 18.5647 3.75C18.5647 2.47156 17.5283 1.43518 16.2499 1.43518C14.9714 1.43518 13.9351 2.47156 13.9351 3.75V6.06481ZM6.06469 13.9352H13.9351M6.06469 13.9352H3.74987C2.47144 13.9352 1.43506 14.9716 1.43506 16.25C1.43506 17.5284 2.47144 18.5648 3.74987 18.5648C5.02831 18.5648 6.06469 17.5284 6.06469 16.25V13.9352ZM13.9351 13.9352H16.2499C17.5283 13.9352 18.5647 14.9716 18.5647 16.25C18.5647 17.5284 17.5283 18.5648 16.2499 18.5648C14.9714 18.5648 13.9351 17.5284 13.9351 16.25V13.9352Z" stroke="#F8F9FA" stroke-width="1.5" stroke-linecap="round" stroke-linejoin="round"/>
</g>
<defs>
<clipPath id="clip0_2_72">
<rect width="20" height="20" fill="white"/>
</clipPath>
</defs>
</svg>
