<svg width="20" height="20" viewBox="0 0 20 20" fill="none" xmlns="http://www.w3.org/2000/svg">
<g clip-path="url(#clip0_2_9)">
<path d="M6.06493 6.06481H13.9353M6.06493 6.06481V13.9352M6.06493 6.06481V3.75C6.06493 2.47156 5.02855 1.43518 3.75012 1.43518C2.47168 1.43518 1.4353 2.47156 1.4353 3.75C1.4353 5.02843 2.47168 6.06481 3.75012 6.06481H6.06493ZM13.9353 6.06481V13.9352M13.9353 6.06481H16.2501C17.5285 6.06481 18.5649 5.02843 18.5649 3.75C18.5649 2.47156 17.5285 1.43518 16.2501 1.43518C14.9717 1.43518 13.9353 2.47156 13.9353 3.75V6.06481ZM6.06493 13.9352H13.9353M6.06493 13.9352H3.75012C2.47168 13.9352 1.4353 14.9716 1.4353 16.25C1.4353 17.5284 2.47168 18.5648 3.75012 18.5648C5.02855 18.5648 6.06493 17.5284 6.06493 16.25V13.9352ZM13.9353 13.9352H16.2501C17.5285 13.9352 18.5649 14.9716 18.5649 16.25C18.5649 17.5284 17.5285 18.5648 16.2501 18.5648C14.9717 18.5648 13.9353 17.5284 13.9353 16.25V13.9352Z" stroke="#495057" stroke-width="1.5" stroke-linecap="round" stroke-linejoin="round"/>
</g>
<defs>
<clipPath id="clip0_2_9">
<rect width="20" height="20" fill="white"/>
</clipPath>
</defs>
</svg>
