<svg width="7" height="11" viewBox="0 0 7 11" fill="none" xmlns="http://www.w3.org/2000/svg">
<path d="M6.68912 10.7106C6.78767 10.6195 6.86585 10.5112 6.9192 10.392C6.97254 10.2728 7 10.1451 7 10.0161C7 9.88704 6.97254 9.75929 6.9192 9.64011C6.86585 9.52093 6.78767 9.41267 6.68912 9.32153L2.56453 5.49914L6.68912 1.67675C6.88788 1.49255 6.99955 1.24272 6.99955 0.982218C6.99955 0.721718 6.88788 0.471885 6.68912 0.287683C6.49036 0.103482 6.22077 0 5.93968 0C5.65858 0 5.389 0.103482 5.19023 0.287683L0.310879 4.80954C0.212332 4.90068 0.134148 5.00893 0.0808029 5.12811C0.0274577 5.24729 4.76837e-07 5.37504 4.76837e-07 5.50407C4.76837e-07 5.63309 0.0274577 5.76085 0.0808029 5.88003C0.134148 5.9992 0.212332 6.10746 0.310879 6.1986L5.19023 10.7205C5.59419 11.0948 6.27453 11.0948 6.68912 10.7106Z" fill="#111111"/>
<path d="M6.68912 10.7106C6.78767 10.6195 6.86585 10.5112 6.9192 10.392C6.97254 10.2728 7 10.1451 7 10.0161C7 9.88704 6.97254 9.75929 6.9192 9.64011C6.86585 9.52093 6.78767 9.41267 6.68912 9.32153L2.56453 5.49914L6.68912 1.67675C6.88788 1.49255 6.99955 1.24272 6.99955 0.982218C6.99955 0.721718 6.88788 0.471885 6.68912 0.287683C6.49036 0.103482 6.22077 0 5.93968 0C5.65858 0 5.389 0.103482 5.19023 0.287683L0.310879 4.80954C0.212332 4.90068 0.134148 5.00893 0.0808029 5.12811C0.0274577 5.24729 4.76837e-07 5.37504 4.76837e-07 5.50407C4.76837e-07 5.63309 0.0274577 5.76085 0.0808029 5.88003C0.134148 5.9992 0.212332 6.10746 0.310879 6.1986L5.19023 10.7205C5.59419 11.0948 6.27453 11.0948 6.68912 10.7106Z" fill="black" fill-opacity="0.2"/>
<path d="M6.68912 10.7106C6.78767 10.6195 6.86585 10.5112 6.9192 10.392C6.97254 10.2728 7 10.1451 7 10.0161C7 9.88704 6.97254 9.75929 6.9192 9.64011C6.86585 9.52093 6.78767 9.41267 6.68912 9.32153L2.56453 5.49914L6.68912 1.67675C6.88788 1.49255 6.99955 1.24272 6.99955 0.982218C6.99955 0.721718 6.88788 0.471885 6.68912 0.287683C6.49036 0.103482 6.22077 0 5.93968 0C5.65858 0 5.389 0.103482 5.19023 0.287683L0.310879 4.80954C0.212332 4.90068 0.134148 5.00893 0.0808029 5.12811C0.0274577 5.24729 4.76837e-07 5.37504 4.76837e-07 5.50407C4.76837e-07 5.63309 0.0274577 5.76085 0.0808029 5.88003C0.134148 5.9992 0.212332 6.10746 0.310879 6.1986L5.19023 10.7205C5.59419 11.0948 6.27453 11.0948 6.68912 10.7106Z" fill="black" fill-opacity="0.2"/>
<path d="M6.68912 10.7106C6.78767 10.6195 6.86585 10.5112 6.9192 10.392C6.97254 10.2728 7 10.1451 7 10.0161C7 9.88704 6.97254 9.75929 6.9192 9.64011C6.86585 9.52093 6.78767 9.41267 6.68912 9.32153L2.56453 5.49914L6.68912 1.67675C6.88788 1.49255 6.99955 1.24272 6.99955 0.982218C6.99955 0.721718 6.88788 0.471885 6.68912 0.287683C6.49036 0.103482 6.22077 0 5.93968 0C5.65858 0 5.389 0.103482 5.19023 0.287683L0.310879 4.80954C0.212332 4.90068 0.134148 5.00893 0.0808029 5.12811C0.0274577 5.24729 4.76837e-07 5.37504 4.76837e-07 5.50407C4.76837e-07 5.63309 0.0274577 5.76085 0.0808029 5.88003C0.134148 5.9992 0.212332 6.10746 0.310879 6.1986L5.19023 10.7205C5.59419 11.0948 6.27453 11.0948 6.68912 10.7106Z" fill="black" fill-opacity="0.2"/>
<path d="M6.68912 10.7106C6.78767 10.6195 6.86585 10.5112 6.9192 10.392C6.97254 10.2728 7 10.1451 7 10.0161C7 9.88704 6.97254 9.75929 6.9192 9.64011C6.86585 9.52093 6.78767 9.41267 6.68912 9.32153L2.56453 5.49914L6.68912 1.67675C6.88788 1.49255 6.99955 1.24272 6.99955 0.982218C6.99955 0.721718 6.88788 0.471885 6.68912 0.287683C6.49036 0.103482 6.22077 0 5.93968 0C5.65858 0 5.389 0.103482 5.19023 0.287683L0.310879 4.80954C0.212332 4.90068 0.134148 5.00893 0.0808029 5.12811C0.0274577 5.24729 4.76837e-07 5.37504 4.76837e-07 5.50407C4.76837e-07 5.63309 0.0274577 5.76085 0.0808029 5.88003C0.134148 5.9992 0.212332 6.10746 0.310879 6.1986L5.19023 10.7205C5.59419 11.0948 6.27453 11.0948 6.68912 10.7106Z" fill="black" fill-opacity="0.2"/>
<path d="M6.68912 10.7106C6.78767 10.6195 6.86585 10.5112 6.9192 10.392C6.97254 10.2728 7 10.1451 7 10.0161C7 9.88704 6.97254 9.75929 6.9192 9.64011C6.86585 9.52093 6.78767 9.41267 6.68912 9.32153L2.56453 5.49914L6.68912 1.67675C6.88788 1.49255 6.99955 1.24272 6.99955 0.982218C6.99955 0.721718 6.88788 0.471885 6.68912 0.287683C6.49036 0.103482 6.22077 0 5.93968 0C5.65858 0 5.389 0.103482 5.19023 0.287683L0.310879 4.80954C0.212332 4.90068 0.134148 5.00893 0.0808029 5.12811C0.0274577 5.24729 4.76837e-07 5.37504 4.76837e-07 5.50407C4.76837e-07 5.63309 0.0274577 5.76085 0.0808029 5.88003C0.134148 5.9992 0.212332 6.10746 0.310879 6.1986L5.19023 10.7205C5.59419 11.0948 6.27453 11.0948 6.68912 10.7106Z" fill="black" fill-opacity="0.2"/>
<path d="M6.68912 10.7106C6.78767 10.6195 6.86585 10.5112 6.9192 10.392C6.97254 10.2728 7 10.1451 7 10.0161C7 9.88704 6.97254 9.75929 6.9192 9.64011C6.86585 9.52093 6.78767 9.41267 6.68912 9.32153L2.56453 5.49914L6.68912 1.67675C6.88788 1.49255 6.99955 1.24272 6.99955 0.982218C6.99955 0.721718 6.88788 0.471885 6.68912 0.287683C6.49036 0.103482 6.22077 0 5.93968 0C5.65858 0 5.389 0.103482 5.19023 0.287683L0.310879 4.80954C0.212332 4.90068 0.134148 5.00893 0.0808029 5.12811C0.0274577 5.24729 4.76837e-07 5.37504 4.76837e-07 5.50407C4.76837e-07 5.63309 0.0274577 5.76085 0.0808029 5.88003C0.134148 5.9992 0.212332 6.10746 0.310879 6.1986L5.19023 10.7205C5.59419 11.0948 6.27453 11.0948 6.68912 10.7106Z" fill="black" fill-opacity="0.2"/>
<path d="M6.68912 10.7106C6.78767 10.6195 6.86585 10.5112 6.9192 10.392C6.97254 10.2728 7 10.1451 7 10.0161C7 9.88704 6.97254 9.75929 6.9192 9.64011C6.86585 9.52093 6.78767 9.41267 6.68912 9.32153L2.56453 5.49914L6.68912 1.67675C6.88788 1.49255 6.99955 1.24272 6.99955 0.982218C6.99955 0.721718 6.88788 0.471885 6.68912 0.287683C6.49036 0.103482 6.22077 0 5.93968 0C5.65858 0 5.389 0.103482 5.19023 0.287683L0.310879 4.80954C0.212332 4.90068 0.134148 5.00893 0.0808029 5.12811C0.0274577 5.24729 4.76837e-07 5.37504 4.76837e-07 5.50407C4.76837e-07 5.63309 0.0274577 5.76085 0.0808029 5.88003C0.134148 5.9992 0.212332 6.10746 0.310879 6.1986L5.19023 10.7205C5.59419 11.0948 6.27453 11.0948 6.68912 10.7106Z" fill="black" fill-opacity="0.2"/>
</svg>
