<svg width="24" height="24" viewBox="0 0 24 24" fill="none" xmlns="http://www.w3.org/2000/svg">
<path fill-rule="evenodd" clip-rule="evenodd" d="M8.81543 15.5695C8.81543 15.1919 9.10781 14.8857 9.46849 14.8857H14.5319C14.8925 14.8857 15.1849 15.1919 15.1849 15.5695C15.1849 15.9471 14.8925 16.2532 14.5319 16.2532H9.46849C9.10781 16.2532 8.81543 15.9471 8.81543 15.5695Z" fill="#ABABAB"/>
<path fill-rule="evenodd" clip-rule="evenodd" d="M7.49291 6.30985C7.13369 6.65821 6.81115 6.95762 6.52444 7.2222C6.48397 7.25954 6.44434 7.29607 6.40552 7.33187C6.16266 7.55577 5.95116 7.75075 5.76119 7.93434C5.32119 8.35957 5.04326 8.68064 4.84671 9.03972C4.4527 9.75954 4.30611 10.7689 4.30611 13.3616C4.30611 15.2359 4.41327 16.5816 4.65542 17.5572C4.89313 18.5149 5.24749 19.0637 5.71691 19.4165C6.20717 19.7849 6.90706 20.0043 7.96101 20.1181C9.01392 20.2317 10.3273 20.2325 12 20.2325C13.6727 20.2325 14.9861 20.2317 16.039 20.1181C17.0929 20.0043 17.7928 19.7849 18.2831 19.4165C18.7525 19.0637 19.1069 18.5149 19.3446 17.5572C19.5867 16.5816 19.6939 15.2359 19.6939 13.3616C19.6939 10.7688 19.5475 9.75945 19.1537 9.0396C18.9572 8.68055 18.6794 8.3595 18.2395 7.9343C18.0494 7.75054 17.8377 7.55536 17.5946 7.3312C17.556 7.29561 17.5166 7.25929 17.4764 7.22218C17.1897 6.9576 16.8672 6.65818 16.5079 6.30982C16.2953 6.13003 16.075 5.93551 15.8467 5.73391C15.3494 5.29474 14.814 4.82197 14.2364 4.39479C13.3788 3.76051 12.6021 3.36744 11.9756 3.36744C11.3512 3.36744 10.5851 3.76054 9.73879 4.39578C9.18649 4.81034 8.68126 5.26088 8.20654 5.68421C7.96128 5.90292 7.72417 6.11437 7.49291 6.30985ZM8.97776 3.28445C9.84879 2.63065 10.9082 2 11.9756 2C13.0401 2 14.1081 2.62567 14.99 3.27792C15.6134 3.73901 16.2302 4.28316 16.7464 4.73867C16.9667 4.93297 17.1686 5.11114 17.345 5.25986C17.3568 5.26983 17.3683 5.28023 17.3794 5.29104C17.733 5.6343 18.0511 5.92975 18.34 6.19637C18.3792 6.23253 18.418 6.26828 18.4563 6.30363C18.6983 6.5267 18.9231 6.73398 19.1255 6.92959C19.5951 7.38348 19.9903 7.8176 20.287 8.35992C20.8795 9.44282 21 10.821 21 13.3616C21 15.2645 20.8939 16.7519 20.6087 17.9011C20.319 19.0681 19.8319 19.9358 19.0447 20.5273C18.2784 21.1032 17.3066 21.356 16.1729 21.4783C15.0456 21.6 13.6661 21.5999 12.0324 21.5999H11.9676C10.3339 21.5999 8.95441 21.6 7.82709 21.4783C6.69338 21.356 5.72161 21.1032 4.95528 20.5273C4.16811 19.9358 3.68095 19.0681 3.39129 17.9011C3.10607 16.7519 3 15.2645 3 13.3616C3 10.8209 3.12073 9.44273 3.71349 8.35981C4.01033 7.81752 4.40564 7.38342 4.87527 6.92955C5.07744 6.73417 5.30203 6.52713 5.54371 6.30434C5.58231 6.26875 5.62136 6.23276 5.66081 6.19635C5.94974 5.92974 6.26789 5.6343 6.62143 5.29104C6.6326 5.28019 6.64413 5.26976 6.65599 5.25976C6.8407 5.1041 7.05626 4.91222 7.2927 4.70176C7.79249 4.25687 8.38558 3.72894 8.97776 3.28445Z" fill="#ABABAB"/>
</svg>
